<svg id="Group_35485" data-name="Group 35485" xmlns="http://www.w3.org/2000/svg" xmlns:xlink="http://www.w3.org/1999/xlink" width="59.645" height="59.643" viewBox="0 0 59.645 59.643">
  <defs>
    <clipPath id="clip-path">
      <rect id="Rectangle_19691" data-name="Rectangle 19691" width="59.645" height="59.643" fill="none"/>
    </clipPath>
  </defs>
  <g id="Group_35484" data-name="Group 35484" clip-path="url(#clip-path)">
    <path id="Path_24547" data-name="Path 24547" d="M17.027.114c.936,0,2.848-.4,3.556.3.833.832-.1,2.405.323,3.346a3.392,3.392,0,0,0,2.283,1.225c1.153-.056,1.6-1.846,2.7-2.163,1.066-.31,1.949,1.106,2.623,1.779s2.767,2.172,2.774,3.17c.007,1.055-1.589,1.665-2.039,2.474a3.021,3.021,0,0,0,.881,2.829c.909.52,2.449-.4,3.351.262.846.622.417,2.861.411,3.771-.006.845.332,2.782-.246,3.442-.76.868-2.394-.039-3.322.334a3.377,3.377,0,0,0-1.291,2.179c-.062,1.006,1.363,1.629,1.871,2.369.774,1.127-.166,1.729-.982,2.55-.755.76-2.228,2.883-3.293,3.189-1.149.33-1.847-1.084-2.617-1.725-.392-.327-.418-.407-.894-.433a4.9,4.9,0,0,0-1.9.787c-.583.65-.266,1.721-.316,2.584-.086,1.475-.668,1.494-2.026,1.512s-2.7.04-4.049,0c-1.318-.039-1.594-.261-1.661-1.63-.048-.979.264-1.931-.532-2.548a2.32,2.32,0,0,0-2.453-.377c-.862.491-1.422,2.089-2.583,1.875-1.083-.2-2.5-2.261-3.242-3S2.385,26.73,2.985,25.627c.654-1.2,2.255-1.47,1.834-2.958-.325-1.147-.562-1.766-1.745-1.788-.846-.016-2.281.3-2.819-.528-.482-.745-.134-2.508-.134-3.358,0-.935-.4-2.921.373-3.636.87-.81,2.613.258,3.525-.368.392-.269.555-1.016.718-1.444.348-.915.334-.972-.318-1.677C3.4,8.773,2.139,8.094,3.427,6.695A26,26,0,0,1,6.936,3.184c1.315-.937,1.98.323,2.944,1.216.691.641.731.662,1.563.358a4.392,4.392,0,0,0,1.341-.549c.935-.9-.166-2.559.5-3.576.634-.964,2.72-.519,3.74-.519m9.088,4.895c-.57.6-1.116,1.2-1.685,1.77-.935.942-1.708.1-2.7-.346-.841-.375-2.2-.471-2.66-1.339-.4-.767.43-2.487-.324-3.021a8.9,8.9,0,0,0-3.332-.033c-.829.54-.161,1.879-.393,2.773-.275,1.059-1.17,1.022-2.121,1.39-.728.282-1.764,1.187-2.566,1.07s-1.9-1.629-2.446-2.163L5.033,7.863c.731.714,2.323,1.67,2.2,2.83a6.633,6.633,0,0,1-.8,1.622c-.253.567-.346,1.283-.633,1.815-.6,1.111-1.355.847-2.55.891-.614.023-.99-.168-1.246.426A7.564,7.564,0,0,0,2.028,17.2c0,1.785.066,1.715,1.871,1.755,1.067.023,1.458.049,1.92,1.012.34.708.5,1.51.849,2.227.192.4.622.86.616,1.315-.012,1.009-1.713,2.051-2.355,2.646.74.735,2.231,2.875,3.225,2.491,1.286-.5,1.288-2.244,2.971-1.669.5.171,1.013.535,1.508.74a8.182,8.182,0,0,1,1.956.7c1.051.878-.143,2.433.484,3.374.241.362,2.843.416,3.3.235,1.36-.544.011-2.319.815-3.37.577-.754,2.361-.99,3.234-1.412,1.6-.775,1.879-.03,3.085,1.044.733.652.724.608,1.463-.033.394-.342,1.533-1.2,1.7-1.682.44-1.266-1.71-1.648-1.887-2.893-.093-.657.562-1.423.814-1.986a10.976,10.976,0,0,1,.8-2.209c.911-1.125,2.483.151,3.422-.569.4-.308.457-3.224.178-3.653-.552-.85-2.488.19-3.312-.429-.505-.379-.561-1.194-.761-1.746-.242-.668-.741-1.32-.935-1.986-.426-1.464.994-2.253,1.969-3.212l-2.837-2.88" transform="translate(0 0)" fill="#8985d0"/>
    <path id="Path_24548" data-name="Path 24548" d="M187.978,171.353c0,.932.4,2.794-.251,3.53-.76.866-2.447-.058-3.347.321a3.152,3.152,0,0,0-1.232,2.12c-.1,1.206,1.438,1.653,1.959,2.65.624,1.192-.793,2.008-1.6,2.812-.676.677-2.221,2.844-3.221,2.843-1.03,0-1.65-1.632-2.445-2.074a3.15,3.15,0,0,0-2.886.879c-.5.866.409,2.4-.164,3.289s-2.18.516-3.073.518c-1.038,0-2.635.3-3.615-.032-1.141-.389-.9-1.508-.9-2.558.008-1.4-.262-1.5-1.552-1.994-1.7-.649-1.738.868-3.116,1.648-1.2.677-1.9-.529-2.733-1.355-.7-.7-2.766-2.151-2.973-3.174-.265-1.314,1.906-1.855,2.2-2.909a3.667,3.667,0,0,0-.874-2.349c-1.245-1.093-3.627.733-3.94-1.536a25.84,25.84,0,0,1-.032-4.315c.051-1.516.034-2.142,1.684-2.194.967-.03,1.879.272,2.505-.49a4.558,4.558,0,0,0,.7-1.814c-.062-.6-.581-.941-1.02-1.381-.975-.975-1.639-1.563-.6-2.71s2.207-2.3,3.362-3.346c1.035-.938,1.526-.558,2.451.332,1.205,1.16,1.294,1.479,2.864.773,1.336-.6,1.028-1.242,1.061-2.633.032-1.367.3-1.661,1.675-1.711,1.305-.047,2.618-.048,3.924-.047.9,0,1.644-.152,2.047.712.485,1.04-.454,2.522.433,3.375a5.619,5.619,0,0,0,1.825.782c.693.049.982-.453,1.468-.937,1.35-1.343,1.837-1.581,3.281-.148.9.9,2.857,2.227,3.335,3.391.444,1.08-.719,1.8-1.417,2.512-.557.57-.709.626-.569,1.368a5.137,5.137,0,0,0,.694,1.644c.807.876,2.367-.069,3.363.393,1.209.561.716,2.714.716,3.814m-7.712-12.092c-.652.681-1.248,1.285-1.821,1.909-.825.9-1.869-.05-2.7-.419-.756-.333-2.081-.459-2.546-1.191-.489-.769.377-2.451-.245-3.069-.385-.382-2.461-.222-2.983-.158-1.4.172-.629,1.412-.838,2.531s-.557,1.108-1.6,1.468c-.812.281-2.256,1.375-3.118,1.255-.883-.123-1.941-1.761-2.5-2.368-.712.727-1.494,1.424-2.153,2.2-.762.894-.381,1.016.4,1.8.49.491,1.11.923,1.137,1.659s-.742,1.619-1.011,2.314c-.255.658-.292,1.643-.942,2.054-.621.393-1.746.052-2.409.14-.859.115-.828.211-.855,1.092a6.929,6.929,0,0,0,.018,2.493c.636,1.042,2.657-.228,3.555.743.418.452.473,1.465.711,2.035.247.59.977,1.454.954,2.138-.037,1.073-1.515,1.352-1.8,2.3-.353,1.179,1.647,2.447,2.42,3.207.97-1.024,1.821-2.65,3.332-2.044.754.3,1.442.726,2.219,1,.441.154,1.1.222,1.415.626.656.845-.267,2.324.278,3.107.3.434,3.247.5,3.686.193.79-.552-.183-2.481.411-3.3.353-.49,1.2-.538,1.721-.727.686-.249,1.337-.748,2.021-.956,1.631-.5,1.677,1.159,2.894,1.693.775.34,1.008-.23,1.58-.808.325-.328,1.475-1.116,1.46-1.626-.013-.483-1.052-1.17-1.354-1.5-.592-.647-.866-.9-.567-1.777.17-.5.546-1.009.752-1.5a8.722,8.722,0,0,1,.688-1.974c.85-1.043,2.932.24,3.568-.658a11.356,11.356,0,0,0,.023-3.567c-.563-.771-2.523.2-3.336-.412-.734-.555-1.014-2.4-1.418-3.257-.386-.818-.618-1.079-.09-1.883.344-.525,1.334-.958,1.544-1.539.356-.982-1.772-2.486-2.5-3.22" transform="translate(-128.452 -128.723)" fill="#fff"/>
    <path id="Path_24549" data-name="Path 24549" d="M35.9,216.63c.039,1.221-1.137,2.177-.933,3.2s1.9,2.409,2.607,3.113a22.433,22.433,0,0,0,6.314,4.4c.843.392,2.864.736,3.468,1.452.67.794,0,1.493-.833,1.494a9.849,9.849,0,0,1-3.482-1.269A23.609,23.609,0,0,1,39.6,227.06a24.754,24.754,0,0,1-5.718-5.5c-.844-1.118-1.066-.961-2.435-1.132a3.582,3.582,0,0,1-2.435-1.364,3.9,3.9,0,1,1,6.836-3.239,4.6,4.6,0,0,1,.054.805m-1.845-.043a2.039,2.039,0,0,0-2.049-1.992,2,2,0,1,0,2.049,1.992" transform="translate(-23.47 -177.255)" fill="#65b9a7"/>
    <path id="Path_24550" data-name="Path 24550" d="M232.65,53.18a3.978,3.978,0,0,1-3.935,3.867,3.916,3.916,0,0,1-3.855-3.915,3.464,3.464,0,0,1,.831-2.412c.349-.394.249-.659-.012-1.019a22.253,22.253,0,0,0-11.292-8.3c-.157-.052-.318-.094-.474-.15-.651-.231-.907-.655-.746-1.23.146-.525.658-.753,1.324-.552a23.3,23.3,0,0,1,3.194,1.217,23.689,23.689,0,0,1,9.639,8.127,1.1,1.1,0,0,0,1.173.446,3.892,3.892,0,0,1,4.154,3.918m-1.924-.09a2.037,2.037,0,0,0-2.058-1.981,2,2,0,1,0,2.058,1.981" transform="translate(-177.637 -32.841)" fill="#65b9a7"/>
    <path id="Path_24551" data-name="Path 24551" d="M64.306,71.829c-6.65.016-10.173-8.278-5.456-13.013,4.689-4.707,13.02-1.262,13.029,5.373a7.608,7.608,0,0,1-7.572,7.64m-.092-1.9a5.75,5.75,0,0,0,5.806-5.745c.02-5.1-6.53-7.548-9.951-3.867a5.762,5.762,0,0,0,4.145,9.612" transform="translate(-47.247 -47.208)" fill="#8985d0"/>
    <path id="Path_24552" data-name="Path 24552" d="M218.03,210.274a7.685,7.685,0,0,1,5.153,13.17c-4.813,4.564-12.862.891-12.84-5.646a7.613,7.613,0,0,1,7.687-7.523m5.654,7.609a5.7,5.7,0,0,0-5.667-5.72c-5.149-.1-7.812,6.524-3.946,9.981a5.809,5.809,0,0,0,9.613-4.261" transform="translate(-175.323 -175.265)" fill="#fff"/>
  </g>
</svg>
