<svg id="Group_35489" data-name="Group 35489" xmlns="http://www.w3.org/2000/svg" xmlns:xlink="http://www.w3.org/1999/xlink" width="54.771" height="54.751" viewBox="0 0 54.771 54.751">
  <defs>
    <clipPath id="clip-path">
      <rect id="Rectangle_19693" data-name="Rectangle 19693" width="54.771" height="54.751" fill="none"/>
    </clipPath>
  </defs>
  <g id="Group_35488" data-name="Group 35488" clip-path="url(#clip-path)">
    <path id="Path_24559" data-name="Path 24559" d="M0,156.762c.6-.723,1.885-.467,2.691-.464q1.892.007,3.784,0c1.588,0,3.56-.653,3.845,1.3.514.365,2.041-1.818,2.21-2.133a20.232,20.232,0,0,0,1.281-4.039q.661-2.315,1.328-4.628c.274-.954.477-3.234,1.253-3.888,1.629-1.374,4.468,1.239,5.15,2.545,1.389,2.661.32,6.225-.026,9.039.591.361,1.771.1,2.447.1H27.2a33.582,33.582,0,0,1,5.807.068,3.446,3.446,0,0,1,1.23,6.275c.724,1.459,1.057,2.916-.014,4.318-.577.755-.76.569-.511,1.476a4.2,4.2,0,0,1,.313,2.335c-.2.805-.894,1.188-1.194,1.858-.29.649.192,1.11.335,1.807a3.358,3.358,0,0,1-1.2,3.341c-1.248.975-2.876.767-4.362.767q-3.019,0-6.039,0c-1.908,0-3.845.1-5.751.011a24.477,24.477,0,0,1-5.405-1.353c-.5.481-.089.972-.824,1.308-.8.366-2.333.037-3.191.037q-1.831,0-3.662,0c-.786,0-2.292.315-2.74-.57Zm22.716,18.3q2.309,0,4.618,0c1.031,0,2.6.3,3.5-.368a1.618,1.618,0,0,0,.276-2.359c-.723-.83-2.005-.612-2.984-.612-.771,0-2.339.314-2.551-.723-.255-1.244,1.434-1.056,2.159-1.056,1.262,0,5.979.273,4.409-2.471-1.107-1.934-3.925.026-5.351-1.031a.88.88,0,0,1,.3-1.572c.909-.348,2.43-.04,3.413-.042.923,0,1.973.028,2.5-.883a1.616,1.616,0,0,0-.317-1.985c-1.118-1.022-5.373.471-5.424-1.338-.05-1.77,4.6-.614,5.652-1.02a1.643,1.643,0,0,0,.9-2.382c-.6-1.008-1.8-.848-2.817-.847q-3.83,0-7.66,0c-.838,0-2.586.35-3.334-.15-.7-.466-.361-1.5-.27-2.193.288-2.211,1.147-5.036.412-7.207a3.2,3.2,0,0,0-1.763-2.052c-.912-.278-.834.366-1.075,1.217-.708,2.494-1.4,4.993-2.132,7.481-.584,1.989-1.149,3.828-2.854,5.146-.574.443-1.757.724-2.027,1.4-.365.91-.019,2.672-.018,3.679q0,4.136,0,8.273c0,1.577.008,1.6,1.555,2.026a33.9,33.9,0,0,0,3.429.936,46.227,46.227,0,0,0,7.464.138M1.743,166.537c0,2.645.007,5.29-.007,7.936,0,.417.091.6.558.6,1.882-.023,3.764-.018,5.645,0,.411,0,.56-.125.56-.549q-.016-7.936,0-15.871c0-.451-.16-.577-.59-.573-1.846.016-3.693.02-5.539,0-.49-.006-.641.148-.637.639.021,2.61.01,5.219.01,7.829" transform="translate(0 -122.224)" fill="#65b9a7"/>
    <path id="Path_24560" data-name="Path 24560" d="M139.99,0c5.4.806,10.448,3.364,13.6,7.944a19.8,19.8,0,0,1,2.613,16.236,18.883,18.883,0,0,1-11.665,12.284c-.854.3-3.022,1.289-3.84.57-1.509-1.326,1.74-1.861,2.334-2.043a17.58,17.58,0,0,0,6.936-4.156c7.705-7.483,6.1-20.673-2.847-26.389a17.185,17.185,0,0,0-25.291,8.95,23.631,23.631,0,0,0-.873,4.948c-.16,1.4-1.575,1.832-1.788.236-.35-2.624.829-6.045,1.983-8.35a18.5,18.5,0,0,1,5.361-6.364A19.088,19.088,0,0,1,130.9,1.293,34.765,34.765,0,0,1,136.046,0Z" transform="translate(-102.147)" fill="#8985d0"/>
    <path id="Path_24561" data-name="Path 24561" d="M207.287,31.386c-1.4,0-4.241-.6-4.708,1.267-.676,2.7,3.527,1.912,4.974,2.264a6.871,6.871,0,0,1,2.163,12.346c-.517.349-1.536.542-1.92,1-.527.628-.049,1.878-.19,2.645-.165.9-.63.925-1.478.943s-2.493.316-3.234-.1c-.764-.431-.463-1.614-.479-2.354-.027-1.251-.636-.947-1.766-.951-1.669-.007-3.343-.628-3.345-2.6,0-2.029,1.725-2.59,3.416-2.594,1.258,0,2.517,0,3.775,0,.93,0,2.05.149,2.679-.691a1.63,1.63,0,0,0,0-1.956c-.613-.807-1.644-.686-2.545-.692-3.8-.024-7.1-2.537-7.33-6.515a6.831,6.831,0,0,1,3.668-6.414c.9-.465,1.411-.444,1.446-1.54.027-.854-.338-2.2.638-2.616a9.205,9.205,0,0,1,3.553-.04c1.125.191,1.006.985,1.005,1.984,0,1.421.074,1.419,1.494,1.419,1.923,0,4.082.76,3.55,3.184-.549,2.5-3.457,2.011-5.372,2.011Zm-4.139,13.642c-.877,0-2.687-.366-3.467.074-.943.532-.573,1.356.36,1.551,1.06.22,2.536-.387,3.533.056.869.386.629,1.454.626,2.25,0,.363-.119.816.153,1.076.428.41,1.315-.038,1.481-.41.341-.77-.4-1.992.194-2.724.434-.531,1.6-.555,2.206-.884a5.1,5.1,0,0,0,1.557-7.569c-1.254-1.622-3.037-1.939-4.97-1.937-1.569,0-3.063-.434-3.786-1.97a3.461,3.461,0,0,1,1.279-4.408c1.45-.893,3.5-.529,5.126-.528.749,0,2.681.369,3.241-.27.6-.688-.009-1.171-.662-1.352-1.6-.444-4.112.986-4.187-1.439-.025-.786.353-2.613-1.176-1.983-1.255.517.292,2.737-1.151,3.454-1.541.765-2.845.975-3.742,2.66a5.058,5.058,0,0,0-.02,4.727,5.231,5.231,0,0,0,4.471,2.72c1.667.11,3.209-.166,4.367,1.31a3.525,3.525,0,0,1-.25,4.584c-1.356,1.373-3.431,1.013-5.181,1.014" transform="translate(-169.197 -19.408)" fill="#1f1f56"/>
    <path id="Path_24562" data-name="Path 24562" d="M76.524,68.256c0,1.157-1.115.511-1.6.994-.434.436.132,1.245-.693,1.55-1.122.415-.926-.7-1.2-1.224-.348-.651-.9-.186-1.426-.7-.794-.765.109-1.281.713-1.518.889-.348.355-.149.775-1.076a.893.893,0,0,1,1.567-.254c.521.677-.219,1.3.9,1.331.612.019.967.346.968.892" transform="translate(-61.14 -56.314)" fill="#fff"/>
    <path id="Path_24563" data-name="Path 24563" d="M298.083,289.816c.01,1.136-1,.526-1.5.954-.522.454.066,1.3-.8,1.6-1.132.385-.859-.752-1.181-1.248-.4-.617-1.133-.2-1.547-.807-.625-.919.3-1.11.837-1.37.439-.213.426.02.711-.425.148-.231-.047-.633.145-.909a.9.9,0,0,1,1.575.254c.306.669-.16,1.012.823,1.069a.888.888,0,0,1,.93.886" transform="translate(-251.147 -246.325)" fill="#fff"/>
  </g>
</svg>
