<svg id="Group_35487" data-name="Group 35487" xmlns="http://www.w3.org/2000/svg" xmlns:xlink="http://www.w3.org/1999/xlink" width="71.922" height="44.667" viewBox="0 0 71.922 44.667">
  <defs>
    <clipPath id="clip-path">
      <rect id="Rectangle_19692" data-name="Rectangle 19692" width="71.922" height="44.667" fill="none"/>
    </clipPath>
  </defs>
  <g id="Group_35486" data-name="Group 35486" clip-path="url(#clip-path)">
    <path id="Path_24553" data-name="Path 24553" d="M0,59.262c1.538-7.226,3.953-13.824,8.972-19.4,1.253-1.394,5.58-6.576,7.667-5.506.967.5,2.768,3.646,2.344,4.731-.925,2.369-2.891-.242-3.484-1.226-4.936,3.306-8.685,9.132-10.7,14.623a34.725,34.725,0,0,0-1.243,4.19c-.319,1.384-.971,2.547.693,2.694,3.546.312,7.274-.017,10.836-.01,1.025,0,3.72.472,4.533-.279.428-.395.539-1.385.773-1.93a15.861,15.861,0,0,1,1.185-2.24c.577-.909,2.061-2.125,1.931-3.192-.139-1.14-1.981-2.38-.363-3.445,1.358-.894,2.141.624,2.718,1.593.925,1.552,1.729,2.479.423,3.941a18.145,18.145,0,0,0-2.631,3.422c-.7,1.291-.826,3.047-1.581,4.238-.848,1.338-3.13.8-4.487.8H11.474q-3.245,0-6.49,0c-1.515,0-4.017.592-4.985-.894V59.262" transform="translate(0 -27.791)" fill="#8985d0"/>
    <path id="Path_24554" data-name="Path 24554" d="M178.414,116.728l-.257-.418a1.306,1.306,0,0,0-1.789-.428l-6.486,3.948,0,0-6.816,3.9-.006,0c-.024.013-.047.026-.069.041-.281.165-.561.334-.838.5a.912.912,0,0,1-1.322-.167,8.128,8.128,0,0,0-7.529-2.294,8.49,8.49,0,1,0,9.781,6.111c-.088-.341-.242-.66.193-.906L165.046,126l5.569-3.217,3.569-2.061c.128-.062.24-.12.33-.173.99-.572,2.454-1.368,3.444-2.007a1.328,1.328,0,0,0,.456-1.817m-23.561,18.953a5.528,5.528,0,1,1,5.6-5.475,5.542,5.542,0,0,1-5.6,5.475" transform="translate(-118.953 -93.992)" fill="#fff"/>
    <path id="Path_24555" data-name="Path 24555" d="M261.427,62.093q-9.577.008-19.157,0a1.443,1.443,0,0,1-1.546-1.242,11.294,11.294,0,0,0-.942-2.718c-1.527.882-2.96,1.716-4.4,2.532l7.343-4.243a.666.666,0,0,0-.056.1,3.59,3.59,0,0,0,.776,2.532c.752.61,3.34.137,4.3.137q2.3,0,4.588,0,2.484,0,4.97.006c1.23,0,2.493.463,2.429-.988-.111-2.525-1.3-5.4-2.29-7.688a32.071,32.071,0,0,0-9.909-12.782,2.051,2.051,0,0,0-.574.777c-1.838,3.181-3.667,6.368-5.512,9.545-.561.968-2.281,2.926-1.973,4.085a1.759,1.759,0,0,0,2.3,1.425c.073-.032.146-.066.219-.1l-6.816,3.9c.917-.544,1.849-1.077,2.8-1.63l.323-.186a9.18,9.18,0,0,0-1.622-1.9c-.972-.949-1.06-1.425-.392-2.586q4.645-8.049,9.3-16.095a1.572,1.572,0,0,1,2.586-.5,36.31,36.31,0,0,1,14.5,23.346,22.694,22.694,0,0,1,.309,2.639,1.4,1.4,0,0,1-1.553,1.634" transform="translate(-191.062 -27.627)" fill="#65b9a7"/>
    <path id="Path_24556" data-name="Path 24556" d="M121.923,0A37.1,37.1,0,0,1,136.67,3.008c.214.093.427.19.635.3a1.439,1.439,0,0,1,.71,2.2c-.767,1.392-1.572,2.763-2.367,4.14q-3.507,6.073-7.019,12.142c-.656,1.134-1.084,1.3-2.355.935a14.064,14.064,0,0,0-8.01,0c-1.267.375-1.695.205-2.359-.944q-4.669-8.074-9.324-16.155a1.485,1.485,0,0,1,.779-2.386A35.089,35.089,0,0,1,117,.4a42.641,42.641,0,0,1,4.922-.4m-12,5.376a2.622,2.622,0,0,0,.127.358q3.891,6.744,7.782,13.489a.684.684,0,0,0,.868.355,16.243,16.243,0,0,1,6.883-.043.992.992,0,0,0,1.277-.581q3.658-6.393,7.362-12.759c.463-.8.455-.834-.436-1.16a33.391,33.391,0,0,0-18.618-1.3,27.409,27.409,0,0,0-5.245,1.641" transform="translate(-86.325 -0.001)" fill="#1f1f56"/>
    <path id="Path_24557" data-name="Path 24557" d="M106.051,80.109a1.443,1.443,0,0,1-2.483.983,1.45,1.45,0,1,1,2.483-.983" transform="translate(-83.822 -63.877)" fill="#8985d0"/>
    <path id="Path_24558" data-name="Path 24558" d="M234.839,158.608c-.024.013-.047.026-.069.041v0Z" transform="translate(-190.737 -128.859)"/>
  </g>
</svg>
