<svg xmlns="http://www.w3.org/2000/svg" xmlns:xlink="http://www.w3.org/1999/xlink" width="55" height="59.647" viewBox="0 0 55 59.647">
  <defs>
    <clipPath id="clip-path">
      <rect id="Rectangle_19690" data-name="Rectangle 19690" width="55" height="59.647" fill="none"/>
    </clipPath>
  </defs>
  <g id="Group_35483" data-name="Group 35483" transform="translate(0 0)">
    <g id="Group_35482" data-name="Group 35482" transform="translate(0 0)" clip-path="url(#clip-path)">
      <path id="Path_24539" data-name="Path 24539" d="M12.635,8.593a23.461,23.461,0,0,1,7.6-8.312A1.921,1.921,0,0,1,22.267.3a21.944,21.944,0,0,1,7.559,8.291,19.6,19.6,0,0,1-8.786,2,19.568,19.568,0,0,1-8.4-2" transform="translate(14.475 0.001)" fill="#1f1f56"/>
      <path id="Path_24540" data-name="Path 24540" d="M7.69,14.973a5.04,5.04,0,0,0,.135-.888q-.084.438-.135.888" transform="translate(8.81 16.136)" fill="#3773b5"/>
      <path id="Path_24541" data-name="Path 24541" d="M43.926,19.7a10.7,10.7,0,0,0-5.538-3.489A21.194,21.194,0,0,0,36.631,5.1a25.754,25.754,0,0,1-9.689,1.854A25.751,25.751,0,0,1,17.255,5.1,21.194,21.194,0,0,0,15.5,16.212,10.7,10.7,0,0,0,9.96,19.7a10.4,10.4,0,0,0-2.09,4.68,5.04,5.04,0,0,1-.135.888,13.81,13.81,0,0,0-.079,1.942l.247.247,2.588-2.588a.974.974,0,0,1,.562-.283.626.626,0,0,1,.515.167.773.773,0,0,1-.118,1.075l-2.59,2.59.79.787h0a4.915,4.915,0,0,1,3.8-.412,4.815,4.815,0,0,1,2.465,1.817.674.674,0,0,1-.253,1h0a.679.679,0,0,1-.845-.212,3.38,3.38,0,0,0-4.147-1.178l.363.363a6.587,6.587,0,0,1,1.935,4.675,6.7,6.7,0,0,1-.251,1.807c1.369-.554,1.869-2.01,3.081-3.081a6.572,6.572,0,0,1,4.059-1.5H34.031a6.572,6.572,0,0,1,4.059,1.5c1.317,1.163,1.792,2.781,3.457,3.206a3.246,3.246,0,0,0,1.21.073c4.235-6.211,4.579-13.348,1.169-17.562M26.871,21.194a5.261,5.261,0,1,1,5.261-5.261,5.262,5.262,0,0,1-5.261,5.261" transform="translate(8.763 5.843)" fill="#65b9a7"/>
      <path id="Path_24542" data-name="Path 24542" d="M14.734,31.35h0a1.2,1.2,0,0,1-1.2-1.2V21.15a1.2,1.2,0,1,1,2.39,0v9.005a1.2,1.2,0,0,1-1.2,1.2" transform="translate(15.51 22.859)" fill="#efefef"/>
      <path id="Path_24543" data-name="Path 24543" d="M17.281,33.885h0a1.2,1.2,0,0,1-1.2-1.2V23.685a1.2,1.2,0,1,1,2.39,0V32.69a1.2,1.2,0,0,1-1.193,1.2" transform="translate(18.426 25.763)" fill="#efefef"/>
      <path id="Path_24544" data-name="Path 24544" d="M19.825,31.35h0a1.2,1.2,0,0,1-1.2-1.2V21.15a1.2,1.2,0,1,1,2.39,0v9.005a1.2,1.2,0,0,1-1.2,1.2" transform="translate(21.342 22.859)" fill="#efefef"/>
      <path id="Path_24545" data-name="Path 24545" d="M24.426,23.594h0a.679.679,0,0,1-.845-.212,3.382,3.382,0,0,0-4.15-1.178l.363.363a6.58,6.58,0,0,1,1.937,4.675,6.7,6.7,0,0,1-.251,1.807,6.614,6.614,0,0,1-7.567,4.69c-.028,0-.058-.011-.088-.017s-.058-.013-.086-.017c-.045-.009-.09-.019-.135-.03l-.026,0c-.047-.013-.092-.026-.142-.036l0,0c-.032-.009-.064-.015-.1-.026l-.013,0,0,0-.021-.006-.019,0a.251.251,0,0,0-.043-.013l-.011,0-.015-.006-.009,0-.067-.019-.036-.011v0A.88.88,0,0,1,13,33.5h0l0,0-.021-.006-.019-.006c-.034-.011-.069-.024-.1-.036h0l0,0-.088-.034c-.019,0-.036-.015-.056-.019l-.075-.03-.054-.021-.054-.024-.084-.039c-.034-.013-.073-.03-.107-.045-.144-.069-.285-.139-.425-.217-.036-.021-.071-.041-.107-.06l-.157-.1-.157-.1a6.67,6.67,0,0,1-1.036-.85l-.358-.356v0a3.385,3.385,0,0,0,1.176,4.147.677.677,0,0,1,.215.845v0a.676.676,0,0,1-1,.253,4.825,4.825,0,0,1-1.815-2.465,4.909,4.909,0,0,1,.412-3.8v0l-.787-.79-2.592,2.59a.771.771,0,0,1-1.075.116.627.627,0,0,1-.165-.513.968.968,0,0,1,.283-.562L7.321,28.8l-.751-.751h0a4.953,4.953,0,0,1-3.976.511A4.838,4.838,0,0,1,.125,26.742a.676.676,0,0,1,.255-1h0a.676.676,0,0,1,.848.212A3.442,3.442,0,0,0,3,27.263a3.5,3.5,0,0,0,2.568-.217l0,0-.44-.44a1.1,1.1,0,0,1,0-1.553l3.418-3.418,5.188,5.188a.968.968,0,0,0,.562.283.628.628,0,0,0,.515-.167.775.775,0,0,0-.116-1.075L9.51,20.674l3.418-3.42a1.1,1.1,0,0,1,1.2-.236l.039.017a.88.88,0,0,1,.088.047l.03.017a1.131,1.131,0,0,1,.189.152l.438.44,0,0a3.487,3.487,0,0,0,.217-2.568,3.442,3.442,0,0,0-1.309-1.77.676.676,0,0,1-.212-.848v0a.677.677,0,0,1,1-.255,4.84,4.84,0,0,1,1.817,2.467,4.625,4.625,0,0,1,.206,1.65,5.035,5.035,0,0,1-.135.89,5.191,5.191,0,0,1-.584,1.438l.749.751,2.59-2.588a.968.968,0,0,1,.562-.283.626.626,0,0,1,.515.167.771.771,0,0,1-.118,1.073L17.622,20.4l.79.787h0a4.913,4.913,0,0,1,3.8-.412,4.824,4.824,0,0,1,2.465,1.815.677.677,0,0,1-.253,1" transform="translate(0 13.884)" fill="#8985d0"/>
      <path id="Path_24546" data-name="Path 24546" d="M9.39,14.582,10.52,15.71l-6.93,6.93L2.459,21.512a2.243,2.243,0,0,1,0-3.171L1.38,17.963a.628.628,0,0,1-.382-.8.67.67,0,0,1,.148-.234.622.622,0,0,1,.65-.148l1.644.577,1.8-1.8-.577-1.644a.622.622,0,0,1,.148-.648.6.6,0,0,1,.234-.148.625.625,0,0,1,.8.384l.378,1.077a2.243,2.243,0,0,1,3.171,0" transform="translate(1.104 14.992)" fill="#8985d0"/>
    </g>
  </g>
</svg>
